<?xml version="1.0" encoding="utf-8"?>
<!-- Generator: Adobe Illustrator 24.3.0, SVG Export Plug-In . SVG Version: 6.00 Build 0)  -->
<svg version="1.1" id="Livello_1" xmlns="http://www.w3.org/2000/svg" xmlns:xlink="http://www.w3.org/1999/xlink" x="0px" y="0px"
	 viewBox="0 0 700 700" style="enable-background:new 0 0 700 700;" xml:space="preserve">
<style type="text/css">

g#ram {
opacity: 0;
		}
		svg:hover g#ram {opacity:1;
		cursor: pointer;
		transition:all ease 0.5s;
}

	.st0{fill-rule:evenodd;clip-rule:evenodd;}
	.st1{fill:none;stroke:#000000;stroke-width:4;stroke-linecap:round;stroke-linejoin:round;stroke-miterlimit:10;}


</style>
<g id="constellation">
	<path class="st0" d="M128.3,134.3c-7.4,4.2-10,13.7-5.8,21c4.2,7.4,13.7,10,21,5.8c4.4-2.5,7-6.8,7.6-11.5l286.5-13.7
		c0.3,1.5,0.8,2.9,1.6,4.3c4.2,7.4,13.7,10,21,5.8c2.3-1.3,4-3.1,5.3-5.2l37.7,15.7c-0.8,3.6-0.4,7.5,1.6,11
		c3.9,6.9,12.3,9.5,19.4,6.5l25.7,39.6c-5.1,4.8-6.5,12.6-2.9,18.9c4.2,7.4,13.7,10,21,5.8c7.4-4.2,10-13.7,5.8-21
		c-3.9-6.9-12.3-9.5-19.4-6.5l-25.7-39.6c5.1-4.8,6.5-12.6,2.9-18.9c-4.2-7.4-13.7-10-21-5.8l0,0c-2.3,1.3-4,3.1-5.3,5.1l-37.7-15.7
		c0.8-3.6,0.4-7.5-1.6-11c-4.2-7.4-13.7-10-21-5.8l0,0c-4.4,2.5-7,6.8-7.6,11.5l-286.6,13.7c-0.3-1.5-0.8-2.9-1.6-4.2
		C145.2,132.7,135.7,130.1,128.3,134.3L128.3,134.3z M130.9,138.9L130.9,138.9c4.9-2.8,11.1-1.1,13.8,3.8c2.8,4.9,1.1,11-3.8,13.8
		c-4.9,2.8-11,1.1-13.8-3.8C124.4,147.8,126.1,141.7,130.9,138.9L130.9,138.9z M447.7,123.7L447.7,123.7c4.9-2.8,11.1-1.1,13.8,3.8
		c2.8,4.9,1.1,11-3.8,13.8c-4.9,2.8-11,1.1-13.8-3.8C441.2,132.6,442.8,126.5,447.7,123.7L447.7,123.7z M513.3,151.1L513.3,151.1
		c4.9-2.8,11.1-1.1,13.8,3.8c2.8,4.9,1.1,11-3.8,13.8c-4.9,2.8-11.1,1.1-13.8-3.8C506.7,160,508.4,153.9,513.3,151.1L513.3,151.1z
		 M555.5,216.1L555.5,216.1c4.9-2.8,11.1-1.1,13.8,3.8c2.8,4.9,1.1,11-3.8,13.8c-4.9,2.8-11,1.1-13.8-3.8
		C549,225,550.6,218.9,555.5,216.1L555.5,216.1z"/>
</g>
<g id="ram">
	<path class="st1" d="M346.6,190.9c-4.2,0-6.9-3.1-9.9-5.1c-10.2-7.1-21.1-13.1-31.5-19.8c-0.2-0.2-0.8,0.1-1,0
		c-5.9-6.9-15.4-6.1-22.2-10.3c-7.5-4.6-16.8-5.4-22.6-14.3c-8-12.5-18.9-23.1-32.5-30.2c-7.7-3.9-15.6-7.1-24.4-6.4
		c-8.1,0.6-16-1.4-23.9-1.9c-23.7-1.7-44.2,6.6-62.3,21.4c-7.4,6.1-16.3,9.7-24,15.4c-7.3,5.5-15.3,10-21.4,17
		c-8.9,10.2-12.2,22.1-10.9,35.4c0.3,3.7,0.6,7.4,1.6,10.9c0.6,2.1-0.2,3-1.1,4.6c-4.8,8.6-8.8,17.7-10.9,27.4
		c-1.2,5.6-2.3,11.8,3.3,16.4c8,6.6,19.2,4,23.4-5.5c0.9-2,1.6-4,2.4-5.9c2.5-0.5,4.8-1.1,7.1-1.6"/>
	<path class="st1" d="M86.6,233.8c2.3,14.6,1.8,29.8,6.9,43.8c3.4,9.3,8.4,18.1,16.4,24.3c3.2,2.5,4.1,5,3.9,8.6
		c-0.2,7.6-0.3,15.2,2.4,22.4c0.8,2.1-0.4,4.2-1.1,5.9c-3.6,8.7-5.4,17.6-4.8,27c1,16.4,9.4,29.6,28.4,31.6
		c11.4,1.2,23,2.4,33.9,6.8c11,4.4,20.9,10.8,29.9,18.5c3.6,3.1,4.8,7.3,5.6,11.9c1.5,7.8,3,15.8,7.5,22.3c4.1,5.9,5.5,12.2,6.4,19
		c1.5,11.6,5.7,22.5,10.9,32.9c1.5,3,3.9,5.1,7.4,5.5"/>
	<path class="st1" d="M512.6,322.3c-1.9,0.3-2,1.6-2,3.2c-1,24.6-9.5,46.4-24.5,65.8c-1.1,1.4-1.4,2.3-1,4c2,8.5,1.2,17.3,3,25.9
		c2.3,10.7,8.3,19.7,13.6,28.9c5.3,9,8.4,18.4,7.9,29c-0.4,9.7-6.4,16.3-16,17.5c-12.8,1.5-25.6,3.2-38.4,5c-6.8,0.9-6.9,1.3-5,8
		c1.8,6.5,1.5,13.1-0.1,19.4c-2.3,8.8-1.5,17.7-1.2,26.5c0.5,12.5,2.3,24.9,3.2,37.4c0.5,6.6-0.7,13.1-2.5,19.4
		c-0.8,3-0.7,5.7,0.5,8.5c6.9,15,6.5,30-0.1,44.8c-2.8,6.3-9.3,8.5-15,11.3c-2,1-3.8-1.7-4.9-3.8c-2.8-5-4.5-10.6-5.7-16
		c-1.4-6.5-2.8-13.1-2.2-19.9c0.5-5.9,0.9-11.8,3-17.4c0.8-2.1,0.6-4.1-0.1-6c-3.5-9.7-4.3-19.5-3.2-29.9
		c1.7-15.4,3.2-30.8,1.9-46.4c-0.4-4.8-3.7-8-4.9-12.4c-0.8-3-1.9-6-2.7-9.1c-1.2-4.9-2.2-5.8-7-4.9c-4,0.7-8,1.5-12,2.5
		c-2.8,0.7-6,1.2-8.4,0.3c-5.4-2-9.8,0.2-14.5,1.6c-8.1,2.4-16.1,2.1-23.4-2.5c-3.7-2.3-6.7-4.9-6.9-10.4c-0.1-3.2-3.4-6.5-5.7-9.4
		c-3.2-4.2-0.5-6.6,3.5-7c10.2-0.9,20.7-1.8,30.3,1.3c9.6,3.1,18.1-1,27-1.4c3-0.1,5,0.9,7,2.6c2,1.8,4,3.5,6.5,4.5"/>
	<path class="st1" d="M224.9,321c-2,4.1-0.3,7.3,1.9,11c10.2,17.4,21.1,34.4,33.5,50.3c14,17.9,29,34.3,49.8,45.1
		c20.6,10.6,41.7,14.7,64.4,9.8c1.8-0.4,3.7-0.4,5.5-0.5"/>
	<path class="st1" d="M632.8,225.8c-4.5,4.1-10.4,5.8-15.5,8.9c-1.6,0.9-3.7,1.2-4.4,3.1c-1.6,4-5,5.9-8.5,7.4
		c-12.2,5.2-24.6,7.5-37.9,4.7c-5.5-1.1-10.7-2.9-15.3-5.4c-5-2.8-10.2-5.1-14.4-10c-5.8-6.8-9.5-14.3-13.2-22.2
		c-1.4-2.9-0.2-6.1-1.9-9c-4.9-8.6-6.8-17.3-1.1-26.4c0.4-0.6,0.3-1.5,0.2-2.5c-0.3-2.3,0.1-4.8,0.9-6.9c4-11.1,10.1-21.1,19.5-28.3
		c7.4-5.6,13.9-12.4,24.3-13.9c13.9-2,25.5,1.7,35.9,10.3c8.8,7.3,12.6,17.5,14.4,28.4c1.7,10.1,0.6,20.2-5,28.8
		c-7.1,10.9-17.6,17.7-30,21.5C580.7,214.3,582.8,240.3,632.8,225.8z"/>
	<path class="st1" d="M435.9,117.6c-0.2,1.9-1.6,3.3-3,3.9c-13.2,5.6-25.2,13.2-37.4,20.4c-4.9,2.9-10.3,6-13.9,9.6
		c-3.7,3.6-8.6,5.9-11.5,10.4c-3.4,5.1-8.2,8.8-10.7,14.9c-1.7,4.3-6.2,7.5-9.7,11.1c-2.4,2.4-3.4,4.6-2.1,8.1
		c1.4,3.6,2.1,7.5,4.1,10.9c0.2,0.3,0.5,0.7,0.5,1c0.7,15.6,12.3,19.9,24.5,23.4c10.6,3,21.3,0.9,30.7-3c7.4-3.1,13.6-2.3,20.1-0.4
		c8.7,2.5,17.6,3.4,26.5,4.3c9.4,1,18.7,2.4,28,4.3c14.1,2.8,28.4,2.4,41.4-5.6c2.1-1.3,3.6-3.2,5.9-4.1"/>
	<path class="st1" d="M248.9,424.7c0.5,3.5,1.4,7,1.4,10.5c-0.1,8.4,6.8,10.7,11.5,14.7c4.5-4.3,2.1-9,1.4-13.2
		c-1.5-9.2-7.2-17.3-7.4-26.9c-0.2-12.5-7.1-19.6-18.8-23.6c-11.8-4.1-20.9-13.1-31-20.2c0,0-7.9-3.9-2-28.4
		c5.3-5.7,13.2-6.1,19.4-10"/>
	<path class="st1" d="M558.5,126.1c-4.9-8.5-13.2-11.8-22-13.8c-4.5-1-9.1-2.9-14-0.7c-1.6,0.7-3.4-0.1-4.4-1.5
		c-1.3-1.8-3.6-3-5-2.8c-8.1,1.7-12.5-4.2-18-8.1c-10-7-20.8-11.8-33.4-11.6c-4.4,0.1-8.3,1.6-13,2.8c-4.3-3.1-6.9-8.1-10.8-11.9
		c-11-10.4-23.7-15.1-38.5-12.2c-12.6,2.5-22.2,9.5-29.1,20.7c-3.4,5.5-4,12.5-9.1,17"/>
	<path class="st1" d="M352,93.2c0.1,0.6-0.1,1.6-0.5,1.9c-3.8,3.3-3.4,7.5-3,12c1.6,18.4,11.3,31.4,26.6,40.8c1.8,1.1,3,2.9,4.9,3.6
		"/>
	<path class="st1" d="M433.9,429c0.5,0.2,1.3,0.4,1.5,0.8c5.5,12.4,17.7,17.3,27.6,24.8c4.8,3.6,8.4,7.6,10.4,13.1
		c1.3,3.5-0.3,5.7-3.5,5.9c-9,0.6-16.5,6.3-25.4,7.2c-0.7,0.1-1.3,1.6-2,2.4"/>
	<path class="st1" d="M539.6,239.8c-3.8,2.7-4.1,7.3-5.3,11c-5.5,16.6-14.2,31.5-23.3,46.2c-1.8,2.9-2.4,5.3-1.9,8.6
		c0.9,5.6,1.4,11.3,2,16.9"/>
	<path class="st1" d="M563,177c6.4,2.3,16.3-0.1,21-5c1.7-1.8,2.7-3.9,1.8-6c-1.1-2.5-2.6-5.3-5.9-5.5c-6.7-0.5-19.4,6.8-17.4,15.9"
		/>
	<path class="st1" d="M250.9,442.7c-3.4,6.7-4.9,13.1-1.1,20.5c5,9.9,8,20.6,7.1,31.8c-0.5,6.1-1.2,12.2-4.9,17.5
		c-0.8,1.2-1.3,2.5-3,2.5"/>
	<path class="st1" d="M380.8,435.7c1.1,5.9,3,11.5,5.3,16.9c3.7,8.9,8.2,17.4,13.4,25.4c1.4,2.1,2.2,4.4,2,7"/>
	<path class="st1" d="M439.6,439.2c-1.7,2.9-1.4,5.7-0.9,9c1.5,8.6,2.6,17.2,3.5,25.9c0.2,2.3,1,4.3,1.6,6.5"/>
	<path class="st1" d="M221.9,410.3c-6.4-7-13.9-12.4-22.4-16.5c-2.2-1.1-4.4-2.3-7-2"/>
	<path class="st1" d="M370.3,217.8c-0.9-2.8-3.8-2.7-5.8-4c-3.7-2.5-7-5.9-11.9-6"/>
	<path class="st1" d="M242.4,497.5c0.2,3.5,0.4,7,0.5,10.5c0.1,2.2,1,4.5-1.9,6.1c-2.6,1.5,0.2,4.3-0.6,6.4"/>
	<path class="st1" d="M353.1,95.2c3.6,5,8.2,9.3,11,14.9c0.5,0.9,0.3,1.7,0.4,2.5"/>
	<path class="st1" d="M75.9,232.3c1,2.3,2,4.7,3,7"/>
	<path class="st1" d="M442.8,501c2.1,0.6,4.2,1.1,6,2.5"/>
	<path class="st1" d="M403.4,106.2c-5,2.7-8.7,6.2-8.5,12.5c0,2.7,1.2,4,3.6,4.5c5.2,1.1,9.9-0.2,13.9-3.5c3-2.4,2.6-6,1.8-8.9
		c-0.7-2.8-3.4-4.6-6.8-4.5c-1.2,0-2.3,0-3.5,0"/>
</g>
</svg>
