<?xml version="1.0" encoding="utf-8"?>
<!-- Generator: Adobe Illustrator 24.3.0, SVG Export Plug-In . SVG Version: 6.00 Build 0)  -->
<svg version="1.1" id="Livello_1" xmlns="http://www.w3.org/2000/svg" xmlns:xlink="http://www.w3.org/1999/xlink" x="0px" y="0px"
	 viewBox="-100 -100 900 900" style="enable-background:new 0 0 700 700;" xml:space="preserve">
<style type="text/css">


	#stars{
			fill: silver;
	}
	@keyframes blip {
			from {
					opacity: 1;
			}
			to {
					opacity: 0;
			}
	}
	#stars {
			animation: blip 1s linear 1s infinite alternate;
	}
	#stars {
			animation: blip 1s linear 2s infinite alternate;
	}

	.st0{fill:#FFFFFF;}
	.st1{fill:none;}
	.st2{font-family:'Roboto';}
	.st3{font-size:36px;}
</style>
<g id="stars">
	<path class="st0" d="M75.5,108.4l9.9,0.7h0c2.1,0.1,4.1,0.2,6.2,0.6c1.7,0.3,3.1,1.6,3.5,3.2c0.5,1.7-0.1,3.4-1.4,4.6
		c-4.5,5-9.9,9-15.9,11.9c-2,0.9-3.9,2.1-5.7,3.4c1,2.7,1.7,4.9,2.5,7.4h0c1,2.4,1.8,4.9,2.4,7.4c0.6,2-0.2,4.1-1.8,5.3
		c-1.6,1.2-3.9,1.2-5.6,0.1c-2.6-1.1-5-2.5-7.4-3.6c-4,2.5-3.3,6.2-4.1,9.3h0c-0.5,2.6-1.3,5-2.5,7.4c-1,1.7-2.6,3-4.5,3.5
		c-2-0.1-3.8-1.1-5.1-2.6c-2.1-3.6-4.1-7.3-5.7-11.1c-1.1-2.1-2.4-4.3-4-7.4c-3.3,2.7-6.1,5.1-9,7.4c-1.8,1.9-4.8,2.1-6.8,0.4
		c-1.8-1.6-2-4.4-0.4-6.3c1.5-3.8,2.8-7.7,4.4-12.2h0c-2.1-1.5-4.2-2.9-6.5-4.1c-3.5-1.5-7.4-2.4-10.6-3.8c-3.2-1.3-7.4-2.1-7.4-5.7
		c0-5,4.5-4.9,8.1-5.7c5.4-1.2,10.3-4.2,14-8.4c-2.9-3.2-5.7-6.2-8.2-9.4c-0.8-1.4-1.2-3-0.9-4.6c0.5-2.6,3-2.8,5-2.5
		c3.7,0.5,7.4,1.5,11.6,2.5c1.3-1.9,2.4-3.9,3.3-6c2.4-6.4,3.8-12.7,6.3-18.9c0.5-1.2,1.6-2,2.8-2.2c1.3-0.2,2.5,0.3,3.3,1.3
		c1.6,2.4,3,4.8,4.3,7.4c3,5.9,5.9,11.9,8.9,17.9l0,0c0.5,0.7,1.1,1.4,1.8,1.9c3.4-1.5,6.8-3.2,10.2-4.6v0c1.4-0.5,2.9-0.4,4.1,0.5
		c1.2,0.8,1.9,2.2,1.9,3.7C76.6,100.7,76,104.3,75.5,108.4L75.5,108.4z"/>
	<path class="st0" d="M648.4,442.5c2.1-6.3,3.8-10.9,5.2-15.6s3.1-11.2,4.9-16.7v0c0.8-1.4,2.2-2.3,3.8-2.4c1.6,0.2,3,1.1,3.8,2.6
		c1.5,4.3,2.2,8.8,3.5,13.1c1.3,4.3,3.5,10.2,5.5,15.5l13.3-4.1c2.1,6.6-4.4,10.3-3.6,16.4c2.3,1,5,2,7.4,3.2h0
		c1.9,0.8,3.7,1.8,5.4,3c1.5,0.8,2.4,2.4,2.4,4.1s-0.9,3.3-2.4,4.1c-2.4,1.6-5.1,2.8-7.4,4.3c-2.3,1.5-4.2,2.4-6.8,4
		c1.6,6.6,4.7,12.8,9.1,18.1c-7.9,1.8-13-2.9-19.3-4.1c-4.4,3.8-5.2,9.9-7.4,14.7c-1.6,3.3-2.6,7.4-4,10.5c-1.4,3.1-4.3,5.7-6.4,4.9
		v0c-2.3-1.1-3.7-3.4-3.8-6c-0.8-5.7-1.7-11.5-2.8-17.2c-0.6-1.8-1.4-3.6-2.4-5.2c-5.5-1.1-9.7,6.3-13.8-1.1c1.1-2.8,2.5-6,4-9.8
		c-7.8-3.5-14.7-6.7-22.1-10.2h0c-1.3-0.9-2.2-2.3-2.2-3.9c0.4-1.6,1.4-2.9,2.8-3.6c2-0.6,4-1.1,6-1.3c3.6-1,7.4-2.1,10.7-3.3
		c1.5-0.7,2.8-1.6,4.1-2.7c1.1-6.5-6-11.5-2.4-18.8c2.2,1,4.3,1.8,6.4,2.9S644.4,440.3,648.4,442.5L648.4,442.5z"/>
	<path class="st0" d="M423,273.4c2.4-7,4.6-13.6,7.4-20.6l-9.2-3.2c1.3-2.8,2.3-5.2,3.5-8c-3.2-4.9-9-8.3-10.8-13.9
		c0.9-3.3,3.1-3.3,5.1-3.5l12.4-0.7c0.4-3.9,0.6-7.4,1-11.9c1.7,0.4,3.4,1,5,1.7c1.4,0.8,2.7,1.7,3.8,2.8c3.1-8,5.5-15.3,9.2-22.6
		c9.9,5.2,9,15.5,14,23.1l7.4-1.1c3.8,2.1,0.9,4.9,1.7,7.4v0c1,0.6,2.1,1,3.2,1.2c4.9,0.5,9.9,0.7,14.7,1.3h0
		c1.2,0.3,2.2,1.1,2.6,2.3c0.2,1.5-0.2,3.1-1.2,4.3c-3.5,2.7-7.4,4.9-10.8,7.4v2.1c5.8,6.6,5.6,7.4-3.2,9.3
		c-0.9,0.4-1.8,0.9-2.7,1.5c1.5,4.5,3.3,9.1,4.7,13.7v0c0.7,2.4,1.1,4.9,1.2,7.4c0,1.9-3,3.6-4.6,2.6h0c-1.4-0.8-2.7-1.8-3.9-2.9
		c-3.6-3.4-7.4-6.9-11.1-10.8l-7.4,9.5l-7.4-9.1c-6.2,4.6-12.2,9.1-18.2,13.4C427.4,276.8,425,276.7,423,273.4L423,273.4z"/>
	<path class="st0" d="M636.9,328.3c0.6,2.8,1.2,5.6,1.6,8.4c0.5,1.5,0.7,3.2,0.5,4.8c-0.6,1.5-1.7,2.7-3.1,3.5
		c-1.2,0.4-2.4,0.1-3.4-0.6c-2-2-3.8-4.1-5.5-6.3c-3.3,2.7-6.1,5.1-9.1,7.4c-1.5,1.1-4.8-0.9-4.5-2.7c0.7-4.9,1.6-9.7,2.7-15.2h0
		c-3.4-1.5-6.6-3.2-9.8-5.2c-1.2-0.9-1.8-2.4-1.6-3.9c0.8-1.4,2.1-2.4,3.7-2.7c3.6-0.4,7.4,0,11.4,0c1.3-3.5,2.8-6.9,4.5-10.2
		c0.9-1.3,2.3-2.1,3.9-2.2c1.6,0.3,3,1.2,3.8,2.7c1,3.1,1.9,6.3,2.5,9.6l10.8,2.4C646.9,325,638.1,323.3,636.9,328.3L636.9,328.3z"
		/>
	<rect x="20.4" y="19.7" class="st1" width="155.6" height="65.3"/>
	<text transform="matrix(1 0 0 1 20.4312 50.457)" class="st0 st2 st3">41 Ari</text>
	<rect x="413.5" y="135.1" class="st1" width="161.1" height="65.3"/>
	<text transform="matrix(1 0 0 1 413.533 165.9307)" class="st0 st2 st3">Hamal</text>
	<rect x="454" y="317.3" class="st1" width="161.1" height="65.3"/>
	<text transform="matrix(1 0 0 1 453.9542 348.127)" class="st0 st2 st3">Sheratan</text>
	<rect x="444.1" y="493.2" class="st1" width="228.1" height="65.3"/>
	<text transform="matrix(1 0 0 1 444.0922 524)" class="st0 st2 st3">Mesarthim</text>
</g>
<path class="st0" d="M403.9,213.4c-1.4,1.4-2.7,3.8-4.1,3.9c-3.1,0.1-6.2-0.3-9.2-1.2c-34.1-7.9-68.3-15.5-102.4-24
	C232.1,178,176.1,163.3,120,148.7v0c-5.6-1.5-11.1-3.5-16.4-5.9c-1.1-0.4-1.6-3.5-1.4-5.2c0.2-1.7,2.4-2.6,3.5-2.4v0
	c4.7,0.5,9.4,1.2,14.1,2.4c89.2,21.8,178.8,41.8,267.1,67.1c4.6,1.3,9.1,2.7,13.6,4.3C401.8,209.5,402.5,211.4,403.9,213.4
	L403.9,213.4z"/>
<path class="st0" d="M496.5,248.6c1.3-0.2,2.6-0.2,3.8,0c4.4,1.4,8.7,2.9,13,4.7c15.5,7,31.1,14.4,46.7,21.7
	c15.6,7.4,29.5,15.1,44.2,22.8c4.9,2.6,6.9,5.4,5.2,6.9c-1.7,1.5-5.5,0.8-8.1,0c-26.2-11.9-52.5-23.7-78.5-35.7
	c-8-3.7-15.5-8.1-23.1-12.4c-1.7-1.1-3.1-2.6-4.1-4.4C495.1,251.3,496,249.8,496.5,248.6L496.5,248.6z"/>
<path class="st0" d="M626.7,353.9c4.1-0.4,5.5,1,6,2.9c2.4,8.1,4.7,16.2,6.8,24.3c2.1,8.1,4.2,17.5,6.1,26.3c1,4.9,1.5,9.7,2.2,14.7
	c0,1.4-2.2,3.5-3.7,3.1c-1.5-0.4-3.2-1.2-3.5-2.1l0,0c-2-5.2-3.7-10.6-5-16.1c-2.8-13-4.9-26.1-7.8-39.1h0
	C626,363.5,625.7,358.6,626.7,353.9L626.7,353.9z"/>
</svg>
